<?xml version="1.0" encoding="UTF-8"?>
<svg xmlns="http://www.w3.org/2000/svg" xmlns:xlink="http://www.w3.org/1999/xlink" width="846pt" height="696pt" viewBox="0 0 846 696" version="1.1">
<g id="surface1">
<path style=" stroke:none;fill-rule:evenodd;fill:rgb(0.799561%,0.799561%,1.199341%);fill-opacity:1;" d="M 525.757813 519.371094 L 546.121094 519.371094 L 546.121094 590.371094 L 525.757813 590.371094 L 525.757813 519.371094 "/>
<path style=" stroke:none;fill-rule:evenodd;fill:rgb(0.799561%,0.799561%,1.199341%);fill-opacity:1;" d="M 271.179688 590.371094 L 349.246094 590.371094 L 349.246094 519.371094 L 328.882813 519.371094 L 328.882813 579.90625 L 291.542969 579.90625 L 291.542969 519.371094 L 271.179688 519.371094 L 271.179688 590.371094 "/>
<path style=" stroke:none;fill-rule:evenodd;fill:rgb(0.799561%,0.799561%,1.199341%);fill-opacity:1;" d="M 99.476563 519.371094 L 176.292969 519.371094 L 165.78125 529.828125 L 119.84375 529.835938 L 119.84375 549.640625 L 171.605469 549.640625 L 171.605469 560.105469 L 119.84375 560.105469 L 119.84375 579.90625 L 165.382813 579.90625 C 165.394531 579.90625 165.40625 579.90625 165.421875 579.914063 L 165.78125 579.914063 L 176.292969 590.371094 L 99.476563 590.371094 L 99.476563 519.371094 "/>
<path style=" stroke:none;fill-rule:evenodd;fill:rgb(0.799561%,0.799561%,1.199341%);fill-opacity:1;" d="M 0.472656 571.703125 L 20.839844 592.636719 L 20.839844 529.839844 L 64.402344 529.839844 C 65.0625 529.839844 65.53125 530.308594 65.53125 530.96875 L 65.53125 557.558594 L 28.679688 557.558594 L 86.179688 616.226563 L 86.195313 591.613281 L 65.21875 570.003906 L 86.199219 570.003906 L 86.230469 529.65625 C 86.234375 528.980469 86.234375 528.316406 86.226563 527.679688 C 86.183594 525.113281 86.003906 522.945313 85.539063 521.996094 C 84.835938 520.5625 83.414063 519.371094 81.371094 519.371094 L 0.472656 519.371094 L 0.472656 571.703125 "/>
<path style=" stroke:none;fill-rule:evenodd;fill:rgb(0.799561%,0.799561%,1.199341%);fill-opacity:1;" d="M 329.445313 695.882813 L 349.8125 695.882813 L 349.8125 655.148438 L 370.734375 669.289063 L 370.746094 669.285156 L 370.753906 669.289063 L 391.675781 655.148438 L 391.675781 695.882813 L 412.042969 695.882813 L 412.042969 625.164063 C 398.144531 634.441406 384.460938 644.175781 370.746094 653.734375 C 357.03125 644.175781 343.347656 634.441406 329.445313 625.164063 L 329.445313 695.882813 "/>
<path style=" stroke:none;fill-rule:evenodd;fill:rgb(0.799561%,0.799561%,1.199341%);fill-opacity:1;" d="M 146.714844 695.882813 L 226.484375 695.882813 L 226.484375 656.5625 L 206.117188 656.5625 L 206.117188 685.414063 L 167.082031 685.414063 L 167.082031 635.628906 L 215.734375 635.628906 L 226.199219 625.164063 L 146.714844 625.164063 L 146.714844 695.882813 "/>
<path style=" stroke:none;fill-rule:evenodd;fill:rgb(0.799561%,0.799561%,1.199341%);fill-opacity:1;" d="M 207.359375 529.839844 L 239.777344 529.839844 C 240.441406 529.839844 240.910156 530.308594 240.910156 530.96875 L 240.910156 556.710938 L 207.359375 556.710938 Z M 186.882813 590.371094 L 207.359375 590.371094 L 207.367188 567.175781 L 261.558594 567.183594 L 261.558594 525.59375 C 261.558594 522.019531 259.964844 519.371094 256.46875 519.371094 L 186.882813 519.371094 L 186.882813 590.371094 "/>
<path style=" stroke:none;fill-rule:evenodd;fill:rgb(0.799561%,0.799561%,1.199341%);fill-opacity:1;" d="M 429.015625 547.941406 L 434.105469 547.941406 L 434.105469 557.25 C 434.105469 568.289063 434.105469 579.332031 434.105469 590.371094 C 409.121094 590.371094 384.132813 590.371094 359.148438 590.371094 C 359.148438 566.703125 359.148438 543.039063 359.148438 519.371094 L 424.207031 519.371094 C 427.246094 519.371094 429.015625 521.941406 429.015625 525.03125 Z M 379.515625 558.40625 L 413.742188 558.40625 L 413.742188 579.90625 L 379.515625 579.90625 Z M 380.644531 529.839844 L 413.457031 529.839844 C 414.078125 529.839844 414.589844 530.347656 414.589844 530.96875 L 414.589844 547.941406 L 379.515625 547.941406 L 379.515625 529.839844 L 380.644531 529.839844 "/>
<path style=" stroke:none;fill-rule:evenodd;fill:rgb(0.799561%,0.799561%,1.199341%);fill-opacity:1;" d="M 445.703125 519.371094 L 466.070313 519.371094 L 466.070313 579.90625 L 517.835938 579.90625 L 517.734375 580.015625 L 507.324219 590.371094 L 445.703125 590.371094 L 445.703125 519.371094 "/>
<path style=" stroke:none;fill-rule:evenodd;fill:rgb(0.799561%,0.799561%,1.199341%);fill-opacity:1;" d="M 557.4375 519.371094 L 634.941406 519.371094 L 624.53125 529.730469 L 624.429688 529.839844 L 577.804688 529.839844 L 577.804688 579.90625 L 634.941406 579.90625 L 624.53125 590.261719 L 624.429688 590.371094 L 557.4375 590.371094 L 557.4375 519.371094 "/>
<path style=" stroke:none;fill-rule:evenodd;fill:rgb(0.799561%,0.799561%,1.199341%);fill-opacity:1;" d="M 691.625 519.089844 L 740.453125 519.089844 C 742.789063 519.089844 744.699219 521 744.699219 523.335938 L 744.699219 590.652344 L 691.625 590.652344 L 666.90625 565.9375 L 666.90625 519.089844 Z M 705.253906 530.6875 L 724.328125 530.6875 L 724.328125 580.1875 L 705.253906 580.1875 L 687.273438 562.207031 L 687.273438 530.6875 L 705.253906 530.6875 "/>
<path style=" stroke:none;fill-rule:evenodd;fill:rgb(0.799561%,0.799561%,1.199341%);fill-opacity:1;" d="M 756.859375 519.371094 L 833.230469 519.371094 L 822.820313 529.730469 L 822.71875 529.839844 L 777.222656 529.839844 L 777.222656 544.265625 L 830.871094 544.265625 L 820.460938 554.863281 L 820.359375 554.976563 L 777.222656 554.976563 L 777.222656 590.371094 L 756.859375 590.371094 L 756.859375 519.371094 "/>
<path style=" stroke:none;fill-rule:evenodd;fill:rgb(0.799561%,0.799561%,1.199341%);fill-opacity:1;" d="M 312.742188 625.164063 C 315.242188 625.164063 317.285156 627.207031 317.285156 629.703125 C 317.285156 651.761719 317.285156 673.820313 317.285156 695.882813 C 310.496094 695.882813 303.707031 695.882813 296.917969 695.882813 L 296.917969 665.898438 L 260.992188 665.898438 L 260.992188 695.882813 C 254.203125 695.882813 247.414063 695.882813 240.628906 695.882813 C 240.628906 672.308594 240.628906 648.734375 240.628906 625.164063 C 264.664063 625.164063 288.703125 625.164063 312.742188 625.164063 Z M 260.992188 635.628906 L 295.785156 635.628906 C 296.449219 635.628906 296.917969 636.097656 296.917969 636.761719 L 296.917969 655.429688 L 260.992188 655.429688 L 260.992188 635.628906 "/>
<path style=" stroke:none;fill-rule:evenodd;fill:rgb(0.799561%,0.799561%,1.199341%);fill-opacity:1;" d="M 436.855469 625.164063 L 500.207031 625.164063 L 489.796875 635.519531 L 489.695313 635.628906 L 444.007813 635.628906 L 444.007813 655.148438 L 495.488281 655.148438 L 495.488281 665.613281 L 444.007813 665.613281 L 444.007813 685.414063 L 489.695313 685.414063 L 489.796875 685.523438 L 500.207031 695.882813 L 423.640625 695.882813 L 423.640625 625.164063 L 436.855469 625.164063 "/>
<path style=" stroke:none;fill-rule:evenodd;fill:rgb(0.799561%,0.799561%,1.199341%);fill-opacity:1;" d="M 509.632813 625.164063 L 583.863281 625.164063 C 586.597656 625.164063 588.835938 627.398438 588.835938 630.132813 L 588.835938 664.480469 L 570.445313 664.480469 L 598.539063 695.882813 L 572.742188 695.882813 L 544.648438 664.480469 L 534.554688 653.203125 L 535.722656 652.035156 L 568.46875 652.035156 L 568.46875 636.679688 C 568.46875 636.101563 567.996094 635.628906 567.417969 635.628906 L 530 635.628906 L 530 695.882813 L 509.632813 695.882813 L 509.632813 625.164063 "/>
<path style=" stroke:none;fill-rule:evenodd;fill:rgb(0.799561%,0.799561%,1.199341%);fill-opacity:1;" d="M 607.167969 625.164063 L 679.339844 625.164063 L 668.929688 635.519531 L 668.824219 635.628906 L 621.929688 635.628906 L 621.929688 655.429688 L 678.222656 655.429688 L 678.222656 695.882813 L 610.6875 695.882813 L 610.585938 695.773438 L 600.175781 685.414063 L 657.855469 685.414063 L 657.855469 665.898438 L 601.5625 665.898438 L 601.5625 625.164063 L 607.167969 625.164063 "/>
<path style=" stroke:none;fill-rule:evenodd;fill:rgb(92.89856%,12.89978%,14.099121%);fill-opacity:1;" d="M 398.304688 262.039063 C 438.726563 236.304688 481.011719 211.074219 527.628906 184.875 C 585.574219 152.308594 643.503906 122.660156 692.242188 99.425781 C 750.828125 71.503906 795.726563 52.851563 805.894531 49.546875 C 805.898438 49.769531 805.902344 49.992188 805.90625 50.214844 L 805.90625 51.484375 C 805.695313 69.414063 796.335938 90.824219 776.8125 99.753906 C 676.757813 145.515625 433.59375 276.660156 340.1875 347.964844 C 355.28125 354.296875 416.894531 373.597656 488.882813 378.027344 C 522.117188 380.074219 540.722656 373.015625 553.105469 366.730469 C 570.597656 357.855469 590.582031 340.015625 609.617188 310.273438 C 634.847656 270.859375 651.59375 223.152344 651.59375 223.152344 L 392.242188 333.890625 C 392.242188 333.890625 618.382813 193.929688 768.84375 125.089844 C 766.492188 140.5625 746.847656 194.148438 721.21875 249.0625 C 705.480469 282.78125 685.128906 316.054688 667.316406 343.429688 C 625.816406 407.207031 588.683594 422.054688 581.714844 423.976563 C 571.191406 426.878906 517.070313 424.816406 475.652344 418.832031 C 389.152344 406.335938 292.175781 376.550781 260.457031 356.878906 C 268.617188 349.015625 326.480469 307.765625 398.304688 262.039063 Z M 739.597656 0.214844 L 737.566406 0.214844 C 626.835938 0.3125 528.902344 36.574219 522.671875 39.820313 C 507.214844 47.867188 471.289063 78.148438 462.59375 86.613281 C 453.515625 95.449219 409.324219 141.246094 361.765625 187.488281 C 318.382813 229.671875 272.117188 272.148438 248.734375 288.84375 C 231.378906 297.289063 161.96875 241.824219 129.140625 240.046875 C 139.457031 243.796875 147.460938 263.222656 165.183594 297.078125 C 178.566406 322.640625 198.089844 358.683594 221.683594 386.78125 C 246.246094 416.039063 283.347656 443.53125 314.859375 456.351563 C 290.058594 431.601563 246.390625 375.179688 246.855469 362.039063 C 247.949219 331.453125 318.765625 283.78125 393.652344 224.5625 C 435.019531 191.84375 627.675781 42.039063 794.167969 3.5625 C 775.878906 1.285156 757.578125 0.273438 739.597656 0.214844 Z M 118.914063 319.648438 C 92.839844 305.460938 70.847656 289.351563 65.828125 282.273438 C 61.742188 276.515625 53.996094 261.636719 47.265625 241.226563 C 36.996094 210.09375 27.839844 171.070313 27.839844 171.070313 C 27.839844 171.070313 69.722656 224.953125 106.59375 268.296875 C 144.738281 313.140625 177.914063 347.496094 177.914063 347.496094 C 177.914063 347.496094 146.410156 334.609375 118.914063 319.648438 "/>
<path style=" stroke:none;fill-rule:nonzero;fill:rgb(0.799561%,0.799561%,1.199341%);fill-opacity:1;" d="M 843.054688 494.804688 C 843.761719 494.804688 844.28125 495.09375 844.613281 495.675781 C 844.949219 496.257813 845.113281 497.019531 845.113281 497.964844 L 845.113281 504.949219 C 845.113281 505.34375 845.070313 505.726563 844.988281 506.097656 C 844.902344 506.472656 844.769531 506.804688 844.59375 507.101563 C 844.417969 507.394531 844.203125 507.628906 843.957031 507.808594 C 843.707031 507.984375 843.414063 508.070313 843.074219 508.070313 L 843.074219 498.082031 L 841.230469 498.082031 L 841.230469 505.089844 C 841.230469 505.480469 841.1875 505.855469 841.101563 506.21875 C 841.015625 506.578125 840.886719 506.894531 840.710938 507.167969 C 840.53125 507.445313 840.316406 507.664063 840.0625 507.824219 C 839.804688 507.988281 839.5 508.070313 839.148438 508.070313 L 837.519531 508.070313 C 837.128906 508.070313 836.785156 507.988281 836.496094 507.824219 C 836.210938 507.664063 835.976563 507.445313 835.789063 507.167969 C 835.609375 506.894531 835.472656 506.578125 835.390625 506.21875 C 835.304688 505.855469 835.261719 505.476563 835.261719 505.070313 L 835.261719 497.925781 C 835.261719 496.980469 835.421875 496.226563 835.742188 495.65625 C 836.0625 495.089844 836.589844 494.804688 837.324219 494.804688 L 837.324219 504.714844 L 839.148438 504.714844 L 839.148438 497.945313 C 839.148438 497.550781 839.183594 497.164063 839.257813 496.785156 C 839.328125 496.40625 839.441406 496.074219 839.597656 495.785156 C 839.757813 495.496094 839.964844 495.261719 840.21875 495.078125 C 840.472656 494.894531 840.765625 494.804688 841.089844 494.804688 Z M 845.09375 491.429688 C 845.09375 491.730469 845.058594 492.011719 844.988281 492.269531 C 844.914063 492.53125 844.8125 492.765625 844.671875 492.96875 C 844.535156 493.171875 844.375 493.332031 844.191406 493.449219 C 844.007813 493.566406 843.800781 493.625 843.5625 493.625 L 837.714844 493.625 L 837.714844 491.171875 L 845.09375 491.171875 Z M 843.585938 482.398438 C 843.847656 482.410156 844.074219 482.484375 844.269531 482.613281 C 844.46875 482.746094 844.625 482.910156 844.742188 483.105469 C 844.859375 483.300781 844.949219 483.535156 845.007813 483.8125 C 845.066406 484.085938 845.09375 484.382813 845.09375 484.695313 L 845.09375 487.71875 C 845.09375 488.03125 845.0625 488.324219 844.996094 488.601563 C 844.933594 488.875 844.835938 489.117188 844.714844 489.328125 C 844.589844 489.535156 844.429688 489.699219 844.242188 489.816406 C 844.050781 489.9375 843.824219 489.996094 843.5625 489.996094 L 837.714844 489.996094 L 837.714844 489.757813 C 837.714844 489.078125 837.847656 488.535156 838.117188 488.128906 C 838.386719 487.726563 838.769531 487.523438 839.265625 487.523438 L 843.585938 487.523438 Z M 842.171875 471.464844 C 842.234375 471.480469 842.347656 471.59375 842.503906 471.808594 C 842.660156 472.027344 842.847656 472.292969 843.0625 472.613281 C 843.28125 472.933594 843.503906 473.285156 843.742188 473.664063 C 843.976563 474.042969 844.203125 474.414063 844.429688 474.773438 C 844.648438 475.132813 844.84375 475.460938 845.007813 475.753906 C 845.171875 476.050781 845.285156 476.261719 845.351563 476.394531 C 845.285156 476.535156 845.171875 476.753906 845.007813 477.039063 C 844.84375 477.328125 844.648438 477.648438 844.429688 478.003906 C 844.203125 478.355469 843.976563 478.71875 843.742188 479.089844 C 843.503906 479.464844 843.28125 479.804688 843.0625 480.113281 C 842.847656 480.421875 842.660156 480.679688 842.503906 480.886719 C 842.347656 481.097656 842.234375 481.207031 842.171875 481.222656 L 837.714844 481.222656 L 837.714844 480.984375 C 837.714844 480.371094 837.847656 479.839844 838.109375 479.394531 C 838.328125 478.964844 838.664063 478.746094 839.109375 478.746094 L 841.601563 478.746094 C 841.652344 478.746094 841.757813 478.648438 841.914063 478.453125 C 842.074219 478.257813 842.234375 478.027344 842.40625 477.765625 C 842.574219 477.503906 842.746094 477.242188 842.914063 476.980469 C 843.085938 476.71875 843.203125 476.523438 843.269531 476.394531 C 843.191406 476.273438 843.070313 476.078125 842.90625 475.804688 C 842.742188 475.527344 842.570313 475.253906 842.386719 474.980469 C 842.203125 474.703125 842.039063 474.464844 841.894531 474.261719 C 841.753906 474.058594 841.652344 473.960938 841.601563 473.960938 L 839.089844 473.960938 C 838.695313 473.960938 838.363281 473.730469 838.089844 473.273438 C 837.839844 472.839844 837.714844 472.308594 837.714844 471.683594 L 837.714844 471.464844 Z M 842.191406 463.125 L 842.191406 467.816406 L 843.585938 467.816406 L 843.585938 460.394531 C 843.847656 460.394531 844.070313 460.453125 844.261719 460.5625 C 844.449219 460.675781 844.609375 460.832031 844.730469 461.035156 C 844.855469 461.238281 844.949219 461.476563 845.007813 461.75 C 845.066406 462.023438 845.09375 462.320313 845.09375 462.632813 L 845.09375 468.070313 C 845.09375 468.371094 845.058594 468.65625 844.988281 468.925781 C 844.914063 469.191406 844.8125 469.429688 844.671875 469.632813 C 844.535156 469.835938 844.375 469.992188 844.191406 470.113281 C 844.007813 470.230469 843.800781 470.289063 843.5625 470.289063 L 839.246094 470.289063 C 839.023438 470.289063 838.816406 470.230469 838.628906 470.113281 C 838.4375 469.992188 838.277344 469.835938 838.148438 469.632813 C 838.015625 469.429688 837.910156 469.191406 837.832031 468.925781 C 837.753906 468.65625 837.714844 468.378906 837.714844 468.089844 L 837.714844 462.632813 C 837.714844 461.953125 837.847656 461.410156 838.117188 461.003906 C 838.386719 460.597656 838.769531 460.394531 839.265625 460.394531 L 839.265625 467.816406 L 840.640625 467.816406 L 840.640625 463.125 Z M 843.5625 449.265625 C 844.089844 449.265625 844.476563 449.484375 844.730469 449.914063 C 844.988281 450.347656 845.113281 450.914063 845.113281 451.621094 L 845.113281 456.863281 C 845.113281 457.164063 845.082031 457.453125 845.015625 457.738281 C 844.949219 458.019531 844.851563 458.265625 844.722656 458.480469 C 844.589844 458.699219 844.429688 458.875 844.242188 459.011719 C 844.050781 459.148438 843.832031 459.21875 843.585938 459.21875 L 843.585938 451.722656 L 842.191406 451.722656 L 842.191406 456.980469 C 842.191406 457.269531 842.15625 457.546875 842.09375 457.816406 C 842.027344 458.085938 841.929688 458.320313 841.796875 458.53125 C 841.667969 458.742188 841.507813 458.90625 841.316406 459.03125 C 841.128906 459.15625 840.902344 459.21875 840.640625 459.21875 L 839.402344 459.21875 C 839.113281 459.21875 838.863281 459.15625 838.648438 459.03125 C 838.433594 458.90625 838.253906 458.742188 838.117188 458.53125 C 837.980469 458.320313 837.878906 458.085938 837.8125 457.816406 C 837.746094 457.546875 837.714844 457.261719 837.714844 456.960938 L 837.714844 451.601563 C 837.714844 450.894531 837.835938 450.328125 838.078125 449.90625 C 838.320313 449.480469 838.714844 449.265625 839.265625 449.265625 L 839.265625 456.6875 L 840.640625 456.6875 L 840.640625 451.621094 C 840.640625 451.320313 840.664063 451.03125 840.71875 450.75 C 840.769531 450.46875 840.855469 450.21875 840.972656 450.003906 C 841.089844 449.785156 841.246094 449.609375 841.433594 449.472656 C 841.625 449.335938 841.84375 449.265625 842.09375 449.265625 Z M 838.050781 438.078125 C 838.363281 438.078125 838.601563 438.15625 838.765625 438.304688 C 838.929688 438.457031 839.046875 438.636719 839.117188 438.84375 C 839.191406 439.054688 839.234375 439.273438 839.246094 439.503906 C 839.257813 439.730469 839.265625 439.925781 839.265625 440.082031 L 839.265625 441.808594 L 843.5625 441.808594 C 844.113281 441.808594 844.507813 441.933594 844.742188 442.183594 C 844.976563 442.429688 845.09375 442.894531 845.09375 443.574219 L 845.09375 444.300781 L 839.265625 444.300781 L 839.265625 448.089844 L 839.050781 448.089844 C 838.539063 448.089844 838.1875 447.9375 838 447.636719 C 837.808594 447.335938 837.714844 446.910156 837.714844 446.363281 L 837.714844 438.078125 Z M 845.113281 429.757813 L 840.640625 433.269531 L 840.640625 429.445313 L 839.265625 429.445313 L 839.265625 434.429688 L 843.347656 434.429688 C 844.042969 434.429688 844.511719 434.644531 844.761719 435.078125 C 844.878906 435.285156 844.957031 435.527344 844.996094 435.804688 C 845.035156 436.078125 845.054688 436.359375 845.054688 436.648438 L 845.054688 436.902344 L 837.714844 436.902344 L 837.714844 429.246094 C 837.714844 428.554688 837.847656 428.007813 838.117188 427.609375 C 838.386719 427.210938 838.769531 427.011719 839.265625 427.011719 L 840.660156 427.011719 C 841.128906 427.011719 841.5 427.191406 841.769531 427.558594 C 842.035156 427.925781 842.183594 428.449219 842.210938 429.128906 L 845.113281 426.773438 Z M 842.191406 418.433594 L 842.191406 423.121094 L 843.585938 423.121094 L 843.585938 415.703125 C 843.847656 415.703125 844.070313 415.761719 844.261719 415.871094 C 844.449219 415.980469 844.609375 416.140625 844.730469 416.34375 C 844.855469 416.546875 844.949219 416.785156 845.007813 417.058594 C 845.066406 417.332031 845.09375 417.628906 845.09375 417.941406 L 845.09375 423.378906 C 845.09375 423.679688 845.058594 423.964844 844.988281 424.230469 C 844.914063 424.5 844.8125 424.734375 844.671875 424.9375 C 844.535156 425.140625 844.375 425.300781 844.191406 425.421875 C 844.007813 425.535156 843.800781 425.597656 843.5625 425.597656 L 839.246094 425.597656 C 839.023438 425.597656 838.816406 425.535156 838.628906 425.421875 C 838.4375 425.300781 838.277344 425.140625 838.148438 424.9375 C 838.015625 424.734375 837.910156 424.5 837.832031 424.230469 C 837.753906 423.964844 837.714844 423.6875 837.714844 423.398438 L 837.714844 417.941406 C 837.714844 417.261719 837.847656 416.71875 838.117188 416.3125 C 838.386719 415.90625 838.769531 415.703125 839.265625 415.703125 L 839.265625 423.121094 L 840.640625 423.121094 L 840.640625 418.433594 Z M 845.09375 400.140625 L 841.230469 400.140625 L 841.230469 406.773438 L 842.757813 406.773438 C 843.242188 406.773438 843.617188 406.84375 843.878906 406.988281 C 844.140625 407.132813 844.363281 407.355469 844.546875 407.65625 C 844.714844 407.929688 844.851563 408.261719 844.949219 408.648438 C 845.046875 409.035156 845.09375 409.4375 845.09375 409.855469 L 845.09375 410.050781 L 837.421875 410.050781 C 837.039063 410.050781 836.71875 409.972656 836.449219 409.816406 C 836.179688 409.660156 835.960938 409.441406 835.78125 409.167969 C 835.605469 408.894531 835.472656 408.574219 835.390625 408.214844 C 835.304688 407.855469 835.261719 407.480469 835.261719 407.085938 L 835.261719 396.820313 L 845.09375 396.820313 Z M 837.324219 400.140625 L 837.324219 406.773438 L 839.148438 406.773438 L 839.148438 400.140625 Z M 845.113281 388.5 L 840.640625 392.015625 L 840.640625 388.1875 L 839.265625 388.1875 L 839.265625 393.171875 L 843.347656 393.171875 C 844.042969 393.171875 844.511719 393.386719 844.761719 393.820313 C 844.878906 394.027344 844.957031 394.269531 844.996094 394.546875 C 845.035156 394.820313 845.054688 395.101563 845.054688 395.390625 L 845.054688 395.644531 L 837.714844 395.644531 L 837.714844 387.988281 C 837.714844 387.296875 837.847656 386.75 838.117188 386.351563 C 838.386719 385.953125 838.769531 385.753906 839.265625 385.753906 L 840.660156 385.753906 C 841.128906 385.753906 841.5 385.9375 841.769531 386.300781 C 842.035156 386.667969 842.183594 387.191406 842.210938 387.871094 L 845.113281 385.515625 Z M 838.050781 374.328125 C 838.363281 374.328125 838.601563 374.402344 838.765625 374.554688 C 838.929688 374.703125 839.046875 374.886719 839.117188 375.09375 C 839.191406 375.304688 839.234375 375.523438 839.246094 375.753906 C 839.257813 375.980469 839.265625 376.175781 839.265625 376.332031 L 839.265625 378.058594 L 843.5625 378.058594 C 844.113281 378.058594 844.507813 378.183594 844.742188 378.429688 C 844.976563 378.679688 845.09375 379.144531 845.09375 379.824219 L 845.09375 380.550781 L 839.265625 380.550781 L 839.265625 384.339844 L 839.050781 384.339844 C 838.539063 384.339844 838.1875 384.1875 838 383.886719 C 837.808594 383.585938 837.714844 383.160156 837.714844 382.613281 L 837.714844 374.328125 Z M 842.191406 365.988281 L 842.191406 370.679688 L 843.585938 370.679688 L 843.585938 363.257813 C 843.847656 363.257813 844.070313 363.316406 844.261719 363.425781 C 844.449219 363.535156 844.609375 363.695313 844.730469 363.898438 C 844.855469 364.101563 844.949219 364.339844 845.007813 364.613281 C 845.066406 364.886719 845.09375 365.183594 845.09375 365.496094 L 845.09375 370.933594 C 845.09375 371.234375 845.058594 371.519531 844.988281 371.785156 C 844.914063 372.054688 844.8125 372.289063 844.671875 372.492188 C 844.535156 372.695313 844.375 372.855469 844.191406 372.976563 C 844.007813 373.09375 843.800781 373.152344 843.5625 373.152344 L 839.246094 373.152344 C 839.023438 373.152344 838.816406 373.09375 838.628906 372.976563 C 838.4375 372.855469 838.277344 372.695313 838.148438 372.492188 C 838.015625 372.289063 837.910156 372.054688 837.832031 371.785156 C 837.753906 371.519531 837.714844 371.242188 837.714844 370.953125 L 837.714844 365.496094 C 837.714844 364.816406 837.847656 364.273438 838.117188 363.867188 C 838.386719 363.460938 838.769531 363.257813 839.265625 363.257813 L 839.265625 370.679688 L 840.640625 370.679688 L 840.640625 365.988281 Z M 843.5625 352.128906 C 844.089844 352.128906 844.476563 352.347656 844.730469 352.777344 C 844.988281 353.210938 845.113281 353.777344 845.113281 354.484375 L 845.113281 359.726563 C 845.113281 360.027344 845.082031 360.316406 845.015625 360.597656 C 844.949219 360.882813 844.851563 361.128906 844.722656 361.34375 C 844.589844 361.5625 844.429688 361.738281 844.242188 361.875 C 844.050781 362.011719 843.832031 362.082031 843.585938 362.082031 L 843.585938 354.585938 L 842.191406 354.585938 L 842.191406 359.84375 C 842.191406 360.132813 842.15625 360.410156 842.09375 360.679688 C 842.027344 360.945313 841.929688 361.183594 841.796875 361.394531 C 841.667969 361.605469 841.507813 361.769531 841.316406 361.894531 C 841.128906 362.019531 840.902344 362.082031 840.640625 362.082031 L 839.402344 362.082031 C 839.113281 362.082031 838.863281 362.019531 838.648438 361.894531 C 838.433594 361.769531 838.253906 361.605469 838.117188 361.394531 C 837.980469 361.183594 837.878906 360.945313 837.8125 360.679688 C 837.746094 360.410156 837.714844 360.125 837.714844 359.824219 L 837.714844 354.464844 C 837.714844 353.757813 837.835938 353.191406 838.078125 352.769531 C 838.320313 352.34375 838.714844 352.128906 839.265625 352.128906 L 839.265625 359.550781 L 840.640625 359.550781 L 840.640625 354.484375 C 840.640625 354.183594 840.664063 353.894531 840.71875 353.613281 C 840.769531 353.332031 840.855469 353.082031 840.972656 352.867188 C 841.089844 352.648438 841.246094 352.472656 841.433594 352.335938 C 841.625 352.199219 841.84375 352.128906 842.09375 352.128906 Z M 843.054688 333.285156 C 843.40625 333.285156 843.707031 333.367188 843.957031 333.523438 C 844.203125 333.679688 844.414063 333.894531 844.585938 334.160156 C 844.753906 334.429688 844.882813 334.746094 844.96875 335.113281 C 845.054688 335.480469 845.09375 335.863281 845.09375 336.269531 L 845.09375 343.554688 C 845.09375 343.945313 845.046875 344.316406 844.949219 344.671875 C 844.851563 345.023438 844.714844 345.335938 844.535156 345.605469 C 844.359375 345.871094 844.144531 346.085938 843.898438 346.242188 C 843.648438 346.398438 843.367188 346.476563 843.054688 346.476563 L 837.265625 346.476563 C 836.976563 346.476563 836.710938 346.398438 836.46875 346.242188 C 836.226563 346.085938 836.019531 345.871094 835.839844 345.605469 C 835.664063 345.335938 835.523438 345.023438 835.417969 344.671875 C 835.3125 344.316406 835.261719 343.9375 835.261719 343.53125 L 835.261719 336.269531 C 835.261719 335.355469 835.429688 334.628906 835.761719 334.09375 C 836.097656 333.554688 836.617188 333.285156 837.324219 333.285156 L 837.324219 343.199219 L 843.074219 343.199219 L 843.074219 336.546875 L 841.230469 336.546875 L 841.230469 338.902344 C 841.230469 339.6875 841.066406 340.363281 840.738281 340.933594 C 840.410156 341.503906 840.003906 341.820313 839.519531 341.882813 L 839.148438 341.882813 L 839.148438 333.285156 Z M 845.113281 324.964844 L 840.640625 328.480469 L 840.640625 324.652344 L 839.265625 324.652344 L 839.265625 329.636719 L 843.347656 329.636719 C 844.042969 329.636719 844.511719 329.851563 844.761719 330.285156 C 844.878906 330.492188 844.957031 330.734375 844.996094 331.011719 C 845.035156 331.285156 845.054688 331.566406 845.054688 331.855469 L 845.054688 332.109375 L 837.714844 332.109375 L 837.714844 324.453125 C 837.714844 323.761719 837.847656 323.214844 838.117188 322.816406 C 838.386719 322.417969 838.769531 322.21875 839.265625 322.21875 L 840.660156 322.21875 C 841.128906 322.21875 841.5 322.402344 841.769531 322.765625 C 842.035156 323.132813 842.183594 323.65625 842.210938 324.335938 L 845.113281 321.980469 Z M 836.320313 315.035156 L 836.320313 316.152344 L 833.398438 315.542969 L 833.398438 314.148438 Z M 845.09375 313.363281 L 842.191406 313.363281 L 842.191406 318.332031 L 843.347656 318.332031 C 843.703125 318.332031 843.976563 318.386719 844.171875 318.496094 C 844.367188 318.609375 844.539063 318.777344 844.683594 319 C 844.8125 319.207031 844.914063 319.457031 844.988281 319.746094 C 845.058594 320.03125 845.09375 320.332031 845.09375 320.648438 L 845.09375 320.804688 L 839.34375 320.804688 C 839.058594 320.804688 838.8125 320.746094 838.609375 320.628906 C 838.40625 320.511719 838.238281 320.347656 838.109375 320.136719 C 837.976563 319.929688 837.878906 319.6875 837.8125 319.421875 C 837.746094 319.152344 837.714844 318.867188 837.714844 318.566406 L 837.714844 310.871094 L 845.09375 310.871094 Z M 839.265625 313.363281 L 839.265625 318.332031 L 840.640625 318.332031 L 840.640625 313.363281 Z M 837.714844 300.648438 C 837.925781 300.648438 838.140625 300.683594 838.363281 300.753906 C 838.585938 300.828125 838.761719 300.960938 838.894531 301.15625 C 839.023438 301.378906 839.117188 301.632813 839.179688 301.914063 C 839.234375 302.195313 839.265625 302.589844 839.265625 303.101563 L 839.265625 307.222656 L 840.640625 307.222656 L 840.640625 304.238281 L 842.191406 304.238281 L 842.191406 307.222656 L 843.367188 307.222656 C 844.0625 307.222656 844.53125 307.4375 844.78125 307.871094 C 844.910156 308.078125 844.996094 308.320313 845.035156 308.597656 C 845.074219 308.871094 845.09375 309.152344 845.09375 309.441406 L 845.09375 309.695313 L 839.265625 309.695313 C 838.871094 309.695313 838.570313 309.617188 838.363281 309.460938 C 838.152344 309.300781 838 309.117188 837.902344 308.898438 C 837.804688 308.683594 837.746094 308.445313 837.734375 308.183594 C 837.722656 307.921875 837.714844 307.679688 837.714844 307.457031 Z M 845.09375 297.269531 C 845.09375 297.570313 845.058594 297.851563 844.988281 298.113281 C 844.914063 298.378906 844.8125 298.609375 844.671875 298.8125 C 844.535156 299.015625 844.375 299.175781 844.191406 299.292969 C 844.007813 299.410156 843.800781 299.46875 843.5625 299.46875 L 837.714844 299.46875 L 837.714844 297.015625 L 845.09375 297.015625 Z M 839.265625 285.90625 C 839.539063 285.90625 839.75 285.988281 839.894531 286.152344 C 840.039063 286.316406 840.148438 286.46875 840.226563 286.613281 C 840.371094 286.835938 840.480469 287.078125 840.550781 287.339844 C 840.621094 287.601563 840.660156 287.882813 840.660156 288.183594 L 840.660156 288.398438 L 839.265625 288.398438 L 839.265625 293.363281 L 843.585938 293.363281 L 843.585938 288.378906 L 842.074219 288.378906 L 842.074219 285.945313 L 843.523438 285.945313 C 843.800781 285.945313 844.035156 286.003906 844.230469 286.121094 C 844.429688 286.238281 844.589844 286.398438 844.714844 286.59375 C 844.835938 286.789063 844.933594 287.023438 844.996094 287.300781 C 845.0625 287.574219 845.09375 287.867188 845.09375 288.183594 L 845.09375 293.640625 C 845.09375 293.929688 845.058594 294.207031 844.988281 294.472656 C 844.914063 294.742188 844.8125 294.976563 844.671875 295.179688 C 844.535156 295.382813 844.375 295.542969 844.191406 295.660156 C 844.007813 295.777344 843.800781 295.839844 843.5625 295.839844 L 839.226563 295.839844 C 839.003906 295.839844 838.800781 295.777344 838.617188 295.660156 C 838.433594 295.542969 838.277344 295.382813 838.148438 295.179688 C 838.015625 294.976563 837.910156 294.742188 837.832031 294.472656 C 837.753906 294.207031 837.714844 293.921875 837.714844 293.621094 L 837.714844 288.183594 C 837.714844 287.488281 837.847656 286.9375 838.117188 286.523438 C 838.386719 286.113281 838.769531 285.90625 839.265625 285.90625 Z M 845.09375 277.289063 L 842.191406 277.289063 L 842.191406 282.257813 L 843.347656 282.257813 C 843.703125 282.257813 843.976563 282.3125 844.171875 282.421875 C 844.367188 282.535156 844.539063 282.699219 844.683594 282.921875 C 844.8125 283.132813 844.914063 283.382813 844.988281 283.667969 C 845.058594 283.957031 845.09375 284.257813 845.09375 284.570313 L 845.09375 284.730469 L 839.34375 284.730469 C 839.058594 284.730469 838.8125 284.671875 838.609375 284.550781 C 838.40625 284.433594 838.238281 284.269531 838.109375 284.0625 C 837.976563 283.851563 837.878906 283.613281 837.8125 283.34375 C 837.746094 283.078125 837.714844 282.792969 837.714844 282.492188 L 837.714844 274.796875 L 845.09375 274.796875 Z M 839.265625 277.289063 L 839.265625 282.257813 L 840.640625 282.257813 L 840.640625 277.289063 Z M 843.5625 263.667969 C 844.089844 263.667969 844.476563 263.882813 844.730469 264.316406 C 844.988281 264.746094 845.113281 265.316406 845.113281 266.023438 L 845.113281 271.265625 C 845.113281 271.566406 845.082031 271.855469 845.015625 272.136719 C 844.949219 272.417969 844.851563 272.667969 844.722656 272.882813 C 844.589844 273.101563 844.429688 273.277344 844.242188 273.414063 C 844.050781 273.550781 843.832031 273.621094 843.585938 273.621094 L 843.585938 266.121094 L 842.191406 266.121094 L 842.191406 271.382813 C 842.191406 271.671875 842.15625 271.949219 842.09375 272.214844 C 842.027344 272.484375 841.929688 272.722656 841.796875 272.933594 C 841.667969 273.140625 841.507813 273.308594 841.316406 273.433594 C 841.128906 273.558594 840.902344 273.621094 840.640625 273.621094 L 839.402344 273.621094 C 839.113281 273.621094 838.863281 273.558594 838.648438 273.433594 C 838.433594 273.308594 838.253906 273.140625 838.117188 272.933594 C 837.980469 272.722656 837.878906 272.484375 837.8125 272.214844 C 837.746094 271.949219 837.714844 271.664063 837.714844 271.363281 L 837.714844 266.003906 C 837.714844 265.296875 837.835938 264.730469 838.078125 264.304688 C 838.320313 263.882813 838.714844 263.667969 839.265625 263.667969 L 839.265625 271.085938 L 840.640625 271.085938 L 840.640625 266.023438 C 840.640625 265.722656 840.664063 265.433594 840.71875 265.148438 C 840.769531 264.867188 840.855469 264.621094 840.972656 264.402344 C 841.089844 264.1875 841.246094 264.011719 841.433594 263.875 C 841.625 263.738281 841.84375 263.667969 842.09375 263.667969 Z M 842.191406 250.851563 L 842.191406 255.542969 L 843.585938 255.542969 L 843.585938 248.121094 C 843.847656 248.121094 844.070313 248.179688 844.261719 248.289063 C 844.449219 248.402344 844.609375 248.558594 844.730469 248.761719 C 844.855469 248.964844 844.949219 249.203125 845.007813 249.476563 C 845.066406 249.753906 845.09375 250.046875 845.09375 250.359375 L 845.09375 255.796875 C 845.09375 256.097656 845.058594 256.382813 844.988281 256.652344 C 844.914063 256.921875 844.8125 257.15625 844.671875 257.359375 C 844.535156 257.5625 844.375 257.722656 844.191406 257.839844 C 844.007813 257.957031 843.800781 258.015625 843.5625 258.015625 L 839.246094 258.015625 C 839.023438 258.015625 838.816406 257.957031 838.628906 257.839844 C 838.4375 257.722656 838.277344 257.5625 838.148438 257.359375 C 838.015625 257.15625 837.910156 256.921875 837.832031 256.652344 C 837.753906 256.382813 837.714844 256.105469 837.714844 255.816406 L 837.714844 250.359375 C 837.714844 249.679688 837.847656 249.136719 838.117188 248.730469 C 838.386719 248.324219 838.769531 248.121094 839.265625 248.121094 L 839.265625 255.542969 L 840.640625 255.542969 L 840.640625 250.851563 Z M 845.09375 232.558594 L 841.230469 232.558594 L 841.230469 239.191406 L 842.757813 239.191406 C 843.242188 239.191406 843.617188 239.265625 843.878906 239.410156 C 844.140625 239.554688 844.363281 239.773438 844.546875 240.074219 C 844.714844 240.351563 844.851563 240.679688 844.949219 241.066406 C 845.046875 241.453125 845.09375 241.855469 845.09375 242.273438 L 845.09375 242.46875 L 837.421875 242.46875 C 837.039063 242.46875 836.71875 242.390625 836.449219 242.234375 C 836.179688 242.078125 835.960938 241.863281 835.78125 241.585938 C 835.605469 241.3125 835.472656 240.996094 835.390625 240.636719 C 835.304688 240.273438 835.261719 239.898438 835.261719 239.507813 L 835.261719 229.242188 L 845.09375 229.242188 Z M 837.324219 232.558594 L 837.324219 239.191406 L 839.148438 239.191406 L 839.148438 232.558594 Z M 843.5625 218.171875 C 843.824219 218.171875 844.050781 218.226563 844.242188 218.339844 C 844.429688 218.449219 844.589844 218.609375 844.714844 218.820313 C 844.835938 219.027344 844.933594 219.265625 844.996094 219.535156 C 845.0625 219.804688 845.09375 220.09375 845.09375 220.410156 L 845.09375 228.0625 L 837.714844 228.0625 L 837.714844 220.410156 C 837.714844 219.714844 837.847656 219.167969 838.117188 218.769531 C 838.386719 218.371094 838.769531 218.171875 839.265625 218.171875 Z M 839.265625 225.550781 L 843.585938 225.550781 L 843.585938 220.605469 L 839.265625 220.605469 Z M 842.191406 209.828125 L 842.191406 214.519531 L 843.585938 214.519531 L 843.585938 207.101563 C 843.847656 207.101563 844.070313 207.15625 844.261719 207.269531 C 844.449219 207.378906 844.609375 207.535156 844.730469 207.738281 C 844.855469 207.941406 844.949219 208.179688 845.007813 208.457031 C 845.066406 208.730469 845.09375 209.023438 845.09375 209.339844 L 845.09375 214.777344 C 845.09375 215.078125 845.058594 215.359375 844.988281 215.628906 C 844.914063 215.898438 844.8125 216.132813 844.671875 216.335938 C 844.535156 216.539063 844.375 216.699219 844.191406 216.816406 C 844.007813 216.933594 843.800781 216.992188 843.5625 216.992188 L 839.246094 216.992188 C 839.023438 216.992188 838.816406 216.933594 838.628906 216.816406 C 838.4375 216.699219 838.277344 216.539063 838.148438 216.335938 C 838.015625 216.132813 837.910156 215.898438 837.832031 215.628906 C 837.753906 215.359375 837.714844 215.085938 837.714844 214.796875 L 837.714844 209.339844 C 837.714844 208.660156 837.847656 208.117188 838.117188 207.710938 C 838.386719 207.304688 838.769531 207.101563 839.265625 207.101563 L 839.265625 214.519531 L 840.640625 214.519531 L 840.640625 209.828125 Z M 843.5625 195.972656 C 844.089844 195.972656 844.476563 196.1875 844.730469 196.621094 C 844.988281 197.050781 845.113281 197.621094 845.113281 198.328125 L 845.113281 203.566406 C 845.113281 203.871094 845.082031 204.160156 845.015625 204.441406 C 844.949219 204.722656 844.851563 204.972656 844.722656 205.1875 C 844.589844 205.402344 844.429688 205.578125 844.242188 205.71875 C 844.050781 205.855469 843.832031 205.925781 843.585938 205.925781 L 843.585938 198.425781 L 842.191406 198.425781 L 842.191406 203.6875 C 842.191406 203.972656 842.15625 204.253906 842.09375 204.519531 C 842.027344 204.789063 841.929688 205.027344 841.796875 205.238281 C 841.667969 205.445313 841.507813 205.613281 841.316406 205.738281 C 841.128906 205.863281 840.902344 205.925781 840.640625 205.925781 L 839.402344 205.925781 C 839.113281 205.925781 838.863281 205.863281 838.648438 205.738281 C 838.433594 205.613281 838.253906 205.445313 838.117188 205.238281 C 837.980469 205.027344 837.878906 204.789063 837.8125 204.519531 C 837.746094 204.253906 837.714844 203.96875 837.714844 203.664063 L 837.714844 198.308594 C 837.714844 197.601563 837.835938 197.035156 838.078125 196.609375 C 838.320313 196.183594 838.714844 195.972656 839.265625 195.972656 L 839.265625 203.390625 L 840.640625 203.390625 L 840.640625 198.328125 C 840.640625 198.027344 840.664063 197.734375 840.71875 197.453125 C 840.769531 197.171875 840.855469 196.925781 840.972656 196.710938 C 841.089844 196.492188 841.246094 196.316406 841.433594 196.179688 C 841.625 196.039063 841.84375 195.972656 842.09375 195.972656 Z M 845.09375 192.597656 C 845.09375 192.898438 845.058594 193.179688 844.988281 193.441406 C 844.914063 193.703125 844.8125 193.933594 844.671875 194.136719 C 844.535156 194.339844 844.375 194.5 844.191406 194.617188 C 844.007813 194.734375 843.800781 194.796875 843.5625 194.796875 L 837.714844 194.796875 L 837.714844 192.339844 L 845.09375 192.339844 Z M 842.171875 181.410156 C 842.234375 181.421875 842.347656 181.535156 842.503906 181.753906 C 842.660156 181.96875 842.847656 182.234375 843.0625 182.558594 C 843.28125 182.878906 843.503906 183.226563 843.742188 183.605469 C 843.976563 183.988281 844.203125 184.355469 844.429688 184.714844 C 844.648438 185.074219 844.84375 185.402344 845.007813 185.699219 C 845.171875 185.992188 845.285156 186.203125 845.351563 186.335938 C 845.285156 186.480469 845.171875 186.695313 845.007813 186.984375 C 844.84375 187.269531 844.648438 187.589844 844.429688 187.945313 C 844.203125 188.296875 843.976563 188.660156 843.742188 189.035156 C 843.503906 189.40625 843.28125 189.746094 843.0625 190.054688 C 842.847656 190.363281 842.660156 190.621094 842.503906 190.828125 C 842.347656 191.039063 842.234375 191.152344 842.171875 191.164063 L 837.714844 191.164063 L 837.714844 190.929688 C 837.714844 190.3125 837.847656 189.78125 838.109375 189.339844 C 838.328125 188.90625 838.664063 188.691406 839.109375 188.691406 L 841.601563 188.691406 C 841.652344 188.691406 841.757813 188.59375 841.914063 188.394531 C 842.074219 188.199219 842.234375 187.972656 842.40625 187.710938 C 842.574219 187.449219 842.746094 187.1875 842.914063 186.925781 C 843.085938 186.660156 843.203125 186.464844 843.269531 186.335938 C 843.191406 186.21875 843.070313 186.019531 842.90625 185.746094 C 842.742188 185.472656 842.570313 185.195313 842.386719 184.921875 C 842.203125 184.648438 842.039063 184.410156 841.894531 184.207031 C 841.753906 184.003906 841.652344 183.902344 841.601563 183.902344 L 839.089844 183.902344 C 838.695313 183.902344 838.363281 183.671875 838.089844 183.214844 C 837.839844 182.78125 837.714844 182.253906 837.714844 181.625 L 837.714844 181.410156 Z M 843.605469 170.339844 C 843.863281 170.339844 844.089844 170.398438 844.269531 170.515625 C 844.453125 170.632813 844.609375 170.789063 844.730469 170.988281 C 844.855469 171.183594 844.949219 171.417969 845.007813 171.691406 C 845.066406 171.96875 845.09375 172.261719 845.09375 172.578125 L 845.09375 178.03125 C 845.09375 178.335938 845.058594 178.617188 844.988281 178.886719 C 844.914063 179.15625 844.8125 179.386719 844.671875 179.585938 C 844.535156 179.78125 844.378906 179.9375 844.203125 180.054688 C 844.023438 180.171875 843.820313 180.230469 843.585938 180.230469 L 839.226563 180.230469 C 839.003906 180.230469 838.796875 180.171875 838.609375 180.054688 C 838.417969 179.9375 838.257813 179.78125 838.128906 179.585938 C 837.996094 179.386719 837.894531 179.15625 837.824219 178.886719 C 837.75 178.617188 837.714844 178.335938 837.714844 178.03125 L 837.714844 172.578125 C 837.714844 171.910156 837.847656 171.367188 838.109375 170.957031 C 838.371094 170.546875 838.75 170.339844 839.246094 170.339844 Z M 839.265625 172.792969 L 839.265625 177.757813 L 843.585938 177.757813 L 843.585938 172.792969 Z M 843.5625 159.210938 C 844.089844 159.210938 844.476563 159.425781 844.730469 159.859375 C 844.988281 160.289063 845.113281 160.859375 845.113281 161.566406 L 845.113281 166.804688 C 845.113281 167.105469 845.082031 167.398438 845.015625 167.679688 C 844.949219 167.960938 844.851563 168.210938 844.722656 168.425781 C 844.589844 168.640625 844.429688 168.816406 844.242188 168.953125 C 844.050781 169.09375 843.832031 169.160156 843.585938 169.160156 L 843.585938 161.664063 L 842.191406 161.664063 L 842.191406 166.921875 C 842.191406 167.210938 842.15625 167.488281 842.09375 167.757813 C 842.027344 168.027344 841.929688 168.265625 841.796875 168.472656 C 841.667969 168.683594 841.507813 168.851563 841.316406 168.976563 C 841.128906 169.097656 840.902344 169.160156 840.640625 169.160156 L 839.402344 169.160156 C 839.113281 169.160156 838.863281 169.097656 838.648438 168.976563 C 838.433594 168.851563 838.253906 168.683594 838.117188 168.472656 C 837.980469 168.265625 837.878906 168.027344 837.8125 167.757813 C 837.746094 167.488281 837.714844 167.203125 837.714844 166.902344 L 837.714844 161.546875 C 837.714844 160.839844 837.835938 160.273438 838.078125 159.847656 C 838.320313 159.421875 838.714844 159.210938 839.265625 159.210938 L 839.265625 166.628906 L 840.640625 166.628906 L 840.640625 161.566406 C 840.640625 161.265625 840.664063 160.972656 840.71875 160.691406 C 840.769531 160.410156 840.855469 160.160156 840.972656 159.945313 C 841.089844 159.730469 841.246094 159.554688 841.433594 159.414063 C 841.625 159.277344 841.84375 159.210938 842.09375 159.210938 L 843.5625 159.210938 "/>
</g>
</svg>
